<svg width="246" height="41" class="logo-small masthead-1-col" xmlns="http://www.w3.org/2000/svg" xmlns:xlink="http://www.w3.org/1999/xlink">
	<path fill="#FFF" d="M0 1.188h65.457v40.023H0V1.188z"></path>
	<path fill="#105EAB" d="M.643 1.843h64.17V40.52H.643V1.843z"></path>
	<path fill="#FFF" d="M26.985 40.512L64.8 2.204v-.383h-.19L26.419 40.512zM3.144 40.512L5.7 1.821h-.403L2.741 40.512zM5.188 40.512l5.521-38.691h-.408L4.783 40.512zM7.377 40.512l8.635-38.691h-.408L6.963 40.512zM9.779 40.512L22.105 1.821h-.415L9.36 40.512zM12.045 40.512L27.881 1.821h-.435L11.609 40.512zM14.652 40.512L34.459 1.821h-.442L14.199 40.512zM44.356 1.821h-.481L18.231 40.512h.48zM53.5 1.821h-.505L21.819 40.512h.515zM64.8 16.461v-.508L33.887 40.512h.637zM64.8 27.103v-.47L42.591 40.512h.76zM64.8 37.145v-.446l-8.172 3.813h.948z"></path>
	<path fill="#FFF" d="M19.797 25.082c-.794.761-2.79 1.58-4.255 1.566-4.264-.004-6.255-3.628-6.291-9.162.029-5.237 2.178-8.569 5.871-8.577 2.64.003 3.924 1.535 4.625 2.448l.772 1.028v-4.76l-.247-.115c-1.522-.708-3.454-1.039-5.216-1.042-6.629.015-11.687 4.767-11.698 11.475.011 6.878 4.792 11.201 11.64 11.21h.036c3.4 0 5.144-1.025 6.064-1.73l.273-.207-1.135-2.546-.439.412zM38.372 8.943c-2.218-1.627-4.996-2.109-7.366-2.109H22.91v21.93h8.623c4.183-.01 10.645-2.665 10.655-11.025.008-4.378-1.591-7.169-3.816-8.796zM28.235 26.22V9.311c3.915.104 8.083.582 8.157 8.517-.063 7.706-4.327 8.287-8.157 8.392zm32.421-1.55l-.439.412c-.794.763-2.784 1.58-4.248 1.566-4.263 0-6.256-3.628-6.292-9.16.028-5.242 2.181-8.573 5.879-8.58 2.635.003 3.922 1.536 4.61 2.448l.776 1.042V7.625l-.247-.115c-1.515-.709-3.447-1.038-5.216-1.041-6.627.014-11.674 4.765-11.684 11.474.01 6.88 4.78 11.198 11.634 11.21h.052c3.389 0 5.126-1.027 6.047-1.73l.273-.207-1.145-2.546z"></path>
	<path fill="#0033A0" d="M65.956 39.438h.773v.115h-.324v.829h-.123v-.829h-.327v-.115zM67.629 40.383v-.567-.232l-.27.8h-.126l-.266-.8h-.004c0 .092.004.213.004.232v.567h-.126v-.944h.18l.276.799h.004l.266-.799h.184v.944h-.122z"></path>
	<g>
		<path d="M69.74 7.554a4.998 4.998 0 0 1 .955-2.478 5.329 5.329 0 0 1 1.994-1.647 5.7 5.7 0 0 1 2.506-.576c.478 0 .945.058 1.402.174a5.272 5.272 0 0 1 2.472 1.42c.359.359.674.783.945 1.27h-1.169a4.63 4.63 0 0 0-1.047-1.009 4.368 4.368 0 0 0-1.242-.605 4.55 4.55 0 0 0-2.98.118c-.539.208-1.021.509-1.444.9s-.757.863-1.002 1.412a4.381 4.381 0 0 0-.367 1.806c.009.841.223 1.598.642 2.269a4.44 4.44 0 0 0 1.65 1.569 4.575 4.575 0 0 0 2.168.579 4.736 4.736 0 0 0 1.336-.229 4.58 4.58 0 0 0 2.328-1.712h1.169a6.292 6.292 0 0 1-1.344 1.641 5.27 5.27 0 0 1-1.654.97 5.458 5.458 0 0 1-1.835.315 5.673 5.673 0 0 1-3.826-1.503 5.253 5.253 0 0 1-1.248-1.747 5.386 5.386 0 0 1-.456-2.224c.002-.241.017-.478.047-.713zM81.037 9.621a4.284 4.284 0 0 1 .367-1.685c.229-.498.536-.923.924-1.275a4.12 4.12 0 0 1 1.289-.802 4.122 4.122 0 0 1 1.452-.285c.666 0 1.311.162 1.935.485s1.135.81 1.533 1.458.597 1.421.597 2.319v.198h-7.042c.046.578.224 1.07.532 1.477a2.94 2.94 0 0 0 1.122.914c.439.201.872.303 1.296.303.378 0 .76-.076 1.145-.227a3.348 3.348 0 0 0 1.021-.621c.295-.263.505-.555.628-.875h1.082a4.047 4.047 0 0 1-.955 1.52c-.418.414-.887.72-1.405.919a4.374 4.374 0 0 1-1.571.297 4.244 4.244 0 0 1-1.946-.555c-.604-.342-1.089-.821-1.455-1.438s-.549-1.327-.549-2.127zm7.069-.525a3.081 3.081 0 0 0-.555-1.25 3.152 3.152 0 0 0-1.064-.917 2.902 2.902 0 0 0-1.391-.342c-.668 0-1.223.158-1.667.475-.443.316-.769.67-.978 1.062-.209.391-.33.714-.362.973h6.017zM90.49 13.57V5.773h.999v1.168a2.607 2.607 0 0 1 1.054-.991 3.04 3.04 0 0 1 1.423-.348c.438 0 .861.079 1.27.236.408.158.773.387 1.096.689.322.301.579.678.771 1.127.191.451.287.954.287 1.511v4.405h-1.026V9.166c0-.539-.116-.998-.346-1.38a2.23 2.23 0 0 0-.908-.857 2.603 2.603 0 0 0-1.199-.286c-.415 0-.802.091-1.163.273a2.144 2.144 0 0 0-.871.818c-.222.362-.333.796-.333 1.303v4.534H90.49zM99.663 13.57V6.726h-1.639v-.953h1.639v-2.75h1.054v2.75h1.809v.953h-1.809v6.844h-1.054zM102.775 9.621a4.267 4.267 0 0 1 .368-1.685c.228-.498.536-.923.923-1.275a4.131 4.131 0 0 1 1.289-.802 4.132 4.132 0 0 1 1.453-.285 4.16 4.16 0 0 1 1.935.485c.624.324 1.135.81 1.533 1.458.397.648.597 1.421.597 2.319v.198h-7.042c.046.578.224 1.07.532 1.477.309.407.683.712 1.123.914.44.201.872.303 1.296.303.378 0 .76-.076 1.145-.227a3.36 3.36 0 0 0 1.021-.621c.295-.263.505-.555.628-.875h1.082a4.05 4.05 0 0 1-.956 1.52c-.418.414-.886.72-1.405.919a4.374 4.374 0 0 1-1.571.297 4.247 4.247 0 0 1-1.947-.555 3.91 3.91 0 0 1-1.454-1.438c-.367-.618-.55-1.327-.55-2.127zm7.07-.525a3.081 3.081 0 0 0-.555-1.25 3.146 3.146 0 0 0-1.065-.917 2.899 2.899 0 0 0-1.39-.342c-.667 0-1.223.158-1.667.475-.443.316-.769.67-.978 1.062-.209.391-.33.714-.362.973h6.017zM112.235 13.57V5.745h.984v1.169c.434-.893 1.193-1.339 2.279-1.339v1.068c-.245 0-.5.052-.765.157a2.547 2.547 0 0 0-.729.445 2.237 2.237 0 0 0-.53.675 1.787 1.787 0 0 0-.199.834v4.816h-1.04zM116.157 8.056a2.597 2.597 0 0 1-.014-.313c0-.452.112-.842.338-1.166.225-.325.507-.568.848-.73.34-.163.672-.244.994-.244a2.403 2.403 0 0 1 1.496.525c.215.174.389.395.522.661.134.268.208.57.221.909h-1.068c-.019-.374-.139-.647-.36-.822a1.275 1.275 0 0 0-.809-.26c-.281 0-.542.091-.783.274-.242.184-.371.453-.386.808l.04.175c.025.107.041.178.047.211.072.257.317.472.734.645.418.173.838.339 1.262.499.423.159.781.392 1.073.7.292.309.438.748.438 1.319 0 .097-.009.24-.032.428-.058.48-.216.875-.475 1.186a2.244 2.244 0 0 1-.914.674 2.81 2.81 0 0 1-1.034.207c-.472 0-.892-.108-1.264-.324a2.275 2.275 0 0 1-.866-.883 2.541 2.541 0 0 1-.308-1.242l1.057-.032c.014.448.165.811.454 1.089.289.278.618.424.987.438a1.5 1.5 0 0 0 .947-.429c.261-.254.392-.562.392-.924 0-.32-.105-.61-.314-.872-.21-.261-.533-.446-.969-.555-.595-.16-1.103-.384-1.524-.672-.421-.288-.664-.714-.73-1.28zM126.266 13.57V6.743h-1.197v-.939h1.197c0-1.835 1.001-2.752 3.005-2.752v.971c-.594 0-1.069.121-1.427.36-.357.24-.541.676-.553 1.307a.247.247 0 0 1 .028.115h1.951v.939h-1.951v6.827h-1.053zM129.484 9.537a3.765 3.765 0 0 1 .322-1.481c.209-.476.501-.897.876-1.265s.818-.658 1.332-.87a4.345 4.345 0 0 1 1.672-.318c.57 0 1.155.163 1.752.49a4.503 4.503 0 0 1 1.508 1.342c.409.567.638 1.192.69 1.874 0 .034.001.086.006.154.006.066.007.115.007.145a4.088 4.088 0 0 1-1.224 2.939 4.183 4.183 0 0 1-1.319.882 4 4 0 0 1-1.561.313 4.11 4.11 0 0 1-1.93-.494 3.948 3.948 0 0 1-1.537-1.453c-.395-.64-.594-1.392-.594-2.258zm1.027.055c0 .624.139 1.169.416 1.637.276.469.649.833 1.118 1.094.468.261.979.406 1.531.433.461 0 .923-.124 1.383-.372s.841-.612 1.143-1.093c.302-.481.452-1.048.452-1.699 0-.378-.079-.746-.236-1.104a3.145 3.145 0 0 0-.655-.959 3.13 3.13 0 0 0-.963-.668 2.704 2.704 0 0 0-1.123-.245 3.184 3.184 0 0 0-1.486.403c-.466.257-.844.61-1.133 1.06-.29.449-.438.954-.447 1.513zM139.03 13.57V5.745h.984v1.169c.434-.893 1.193-1.339 2.279-1.339v1.068c-.246 0-.501.052-.766.157s-.508.253-.729.445a2.234 2.234 0 0 0-.529.675 1.775 1.775 0 0 0-.198.834v4.816h-1.041zM147.154 13.57V3.023h2.867c.988 0 1.862.14 2.621.42.758.279 1.392.667 1.9 1.164.51.496.89 1.067 1.141 1.713.253.646.379 1.338.379 2.076-.008.784-.162 1.499-.466 2.143a4.904 4.904 0 0 1-1.238 1.648c-.523.455-1.111.8-1.763 1.032a5.976 5.976 0 0 1-2.021.35h-3.42zm1.055-9.607V12.6h1.625c1.463 0 2.668-.344 3.614-1.031.947-.688 1.467-1.745 1.559-3.172 0-.587-.101-1.146-.302-1.679a4.038 4.038 0 0 0-.92-1.419c-.412-.414-.934-.74-1.566-.978-.631-.237-1.364-.357-2.197-.357h-1.813zM157.595 4.834V3.023h1.054v1.811h-1.054zm0 8.736V5.773h1.054v7.797h-1.054zM160.189 8.056a2.824 2.824 0 0 1-.014-.313c0-.452.113-.842.338-1.166.226-.325.507-.568.849-.73.34-.163.671-.244.993-.244a2.403 2.403 0 0 1 1.496.525c.215.175.389.395.521.661.135.268.208.57.222.909h-1.068c-.019-.374-.139-.647-.359-.822a1.278 1.278 0 0 0-.81-.26c-.28 0-.541.091-.783.274-.241.184-.369.453-.386.808.003.009.017.067.04.175l.047.211c.072.257.316.472.733.645.418.173.839.339 1.262.499.424.159.782.392 1.073.7.293.309.438.748.438 1.319 0 .097-.01.24-.031.428-.058.48-.216.875-.475 1.186a2.244 2.244 0 0 1-.914.674 2.81 2.81 0 0 1-1.034.207 2.47 2.47 0 0 1-1.265-.324c-.371-.216-.659-.51-.864-.883s-.308-.788-.308-1.242l1.057-.032c.014.448.164.811.453 1.089s.619.424.987.438c.371-.032.688-.175.948-.429.262-.254.391-.562.391-.924 0-.32-.104-.61-.314-.872s-.532-.446-.969-.555c-.594-.16-1.102-.384-1.524-.672-.42-.288-.663-.714-.73-1.28zM165.695 9.621a4.284 4.284 0 0 1 .367-1.685c.228-.498.536-.923.923-1.275a4.143 4.143 0 0 1 2.742-1.087c.666 0 1.312.162 1.935.485.625.324 1.135.81 1.532 1.458.398.648.598 1.421.598 2.319v.198h-7.043c.047.578.224 1.07.532 1.477.309.407.683.712 1.123.914.438.201.871.303 1.296.303.378 0 .759-.076 1.145-.227a3.36 3.36 0 0 0 1.021-.621c.297-.263.506-.555.629-.875h1.082a4.072 4.072 0 0 1-2.361 2.439 4.37 4.37 0 0 1-1.57.297 4.24 4.24 0 0 1-1.947-.555c-.604-.342-1.089-.821-1.454-1.438s-.55-1.327-.55-2.127zm7.071-.525a3.159 3.159 0 0 0-1.621-2.167 2.892 2.892 0 0 0-1.389-.342c-.668 0-1.225.158-1.667.475-.443.316-.77.67-.978 1.062-.209.391-.33.714-.362.973h6.017zM174.762 9.722a4.128 4.128 0 0 1 .365-1.708c.236-.518.554-.958.952-1.32.397-.361.844-.638 1.342-.831s1.003-.289 1.516-.289c1.427.034 2.448.605 3.065 1.712V5.773h1.026v7.797h-1.026v-1.482c-.293.523-.716.93-1.271 1.218-.555.289-1.182.434-1.882.434a4.518 4.518 0 0 1-1.535-.308 4.194 4.194 0 0 1-1.313-.815 3.784 3.784 0 0 1-.909-1.271 3.907 3.907 0 0 1-.33-1.624zm1.081-.243c0 .64.141 1.206.424 1.699.281.493.653.871 1.115 1.135.461.265.95.403 1.468.415.596 0 1.134-.144 1.614-.431a3.17 3.17 0 0 0 1.13-1.127c.271-.465.408-.948.408-1.449a3.04 3.04 0 0 0-.396-1.527 3.043 3.043 0 0 0-1.092-1.119 3.19 3.19 0 0 0-1.521-.461c-.602 0-1.143.149-1.625.448-.483.3-.857.674-1.124 1.124-.267.452-.401.881-.401 1.293zM184.563 8.056a2.824 2.824 0 0 1-.014-.313c0-.452.113-.842.338-1.166.225-.325.508-.568.848-.73.34-.163.671-.244.993-.244a2.399 2.399 0 0 1 1.497.525c.214.174.388.395.522.661.133.268.207.57.22.909H187.9c-.019-.374-.139-.647-.36-.822a1.274 1.274 0 0 0-.81-.26c-.28 0-.541.091-.782.274-.242.184-.37.453-.386.808l.039.175.048.211c.071.257.315.472.734.645.416.173.838.339 1.262.499.422.159.78.392 1.073.7.291.309.438.748.438 1.319 0 .097-.011.24-.031.428-.058.48-.216.875-.476 1.186a2.244 2.244 0 0 1-.914.674c-.35.138-.695.207-1.034.207-.471 0-.893-.108-1.264-.324-.371-.216-.66-.51-.865-.883s-.308-.788-.308-1.242l1.057-.032c.014.448.165.811.453 1.089.29.278.619.424.988.438.371-.032.687-.175.948-.429a1.24 1.24 0 0 0 .391-.924c0-.32-.104-.61-.314-.872s-.533-.446-.97-.555c-.594-.16-1.103-.384-1.524-.672-.422-.288-.665-.714-.73-1.28zM190.068 9.621a4.267 4.267 0 0 1 .367-1.685c.228-.498.536-.923.923-1.275a4.153 4.153 0 0 1 2.741-1.087c.667 0 1.311.162 1.935.485s1.136.81 1.533 1.458.598 1.421.598 2.319v.198h-7.043c.046.578.224 1.07.532 1.477.308.407.683.712 1.122.914a3.1 3.1 0 0 0 1.296.303c.378 0 .759-.076 1.145-.227a3.348 3.348 0 0 0 1.021-.621c.296-.263.506-.555.628-.875h1.082a4.069 4.069 0 0 1-2.361 2.439 4.365 4.365 0 0 1-1.57.297 4.247 4.247 0 0 1-1.947-.555c-.604-.342-1.089-.821-1.454-1.438s-.548-1.327-.548-2.127zm7.07-.525a3.068 3.068 0 0 0-.555-1.25 3.146 3.146 0 0 0-1.065-.917 2.9 2.9 0 0 0-1.391-.342c-.667 0-1.223.158-1.665.475-.444.316-.77.67-.979 1.062-.209.391-.329.714-.361.973h6.016zM69.655 21.59c.104-.938.422-1.762.955-2.478a5.338 5.338 0 0 1 1.994-1.647 5.687 5.687 0 0 1 2.507-.576c.478 0 .945.058 1.402.174a5.325 5.325 0 0 1 2.472 1.42c.359.359.673.782.945 1.27h-1.17c-.304-.399-.652-.735-1.047-1.009s-.808-.476-1.243-.606a4.544 4.544 0 0 0-1.301-.194 4.605 4.605 0 0 0-3.123 1.213 4.261 4.261 0 0 0-1.002 1.413 4.376 4.376 0 0 0-.367 1.805c.01.841.223 1.599.642 2.27a4.43 4.43 0 0 0 1.651 1.567 4.584 4.584 0 0 0 2.167.58 4.78 4.78 0 0 0 1.336-.23 4.58 4.58 0 0 0 1.263-.638 4.634 4.634 0 0 0 1.064-1.073h1.169a6.266 6.266 0 0 1-1.343 1.641 5.262 5.262 0 0 1-3.489 1.285 5.688 5.688 0 0 1-3.826-1.503 5.269 5.269 0 0 1-1.248-1.746 5.394 5.394 0 0 1-.456-2.225c.002-.241.018-.479.048-.713zM80.944 23.573c.006-.513.115-1.007.323-1.482s.501-.896.875-1.265a4.142 4.142 0 0 1 1.333-.87 4.345 4.345 0 0 1 1.672-.318c.57 0 1.155.164 1.752.491.597.327 1.1.773 1.508 1.341a3.607 3.607 0 0 1 .696 2.027c.004.066.008.114.008.146 0 .575-.108 1.113-.325 1.616a4.17 4.17 0 0 1-2.221 2.204 3.97 3.97 0 0 1-1.561.313 4.106 4.106 0 0 1-1.929-.494 3.943 3.943 0 0 1-1.536-1.452c-.398-.64-.595-1.391-.595-2.257zm1.026.055c0 .623.138 1.169.416 1.637.277.469.65.833 1.119 1.095.469.261.979.405 1.531.433.461 0 .922-.124 1.383-.372.459-.249.841-.612 1.143-1.094s.452-1.047.452-1.698c0-.379-.079-.746-.237-1.104a3.159 3.159 0 0 0-.654-.96 3.138 3.138 0 0 0-.963-.667 2.707 2.707 0 0 0-1.124-.246 3.177 3.177 0 0 0-1.486.404c-.466.257-.843.61-1.132 1.06s-.439.952-.448 1.512zM90.484 27.605v-7.796h.998v1.168c.258-.429.609-.76 1.055-.992a3.044 3.044 0 0 1 1.422-.348c.439 0 .862.079 1.27.236a3.35 3.35 0 0 1 1.096.69c.322.301.58.676.771 1.126.191.451.287.954.287 1.511v4.404h-1.026V23.2c0-.538-.115-.998-.346-1.38a2.245 2.245 0 0 0-.908-.858 2.63 2.63 0 0 0-1.199-.285c-.416 0-.803.092-1.163.273a2.157 2.157 0 0 0-.871.818c-.221.362-.333.797-.333 1.303v4.533h-1.053zM99.656 27.605v-6.844h-1.639v-.953h1.639v-2.75h1.055v2.75h1.809v.953h-1.809v6.844h-1.055zM103.463 27.605V19.78h.984v1.168c.435-.893 1.194-1.339 2.28-1.339v1.067c-.246 0-.501.053-.766.157a2.507 2.507 0 0 0-.728.445 2.225 2.225 0 0 0-.531.675 1.806 1.806 0 0 0-.198.835v4.815h-1.041zM106.924 23.573c.006-.513.114-1.007.323-1.482a4.06 4.06 0 0 1 2.208-2.135 4.34 4.34 0 0 1 1.672-.318c.57 0 1.155.164 1.752.491s1.1.773 1.508 1.341a3.62 3.62 0 0 1 .696 2.027c.005.066.007.114.007.146a4.05 4.05 0 0 1-.324 1.616 4.186 4.186 0 0 1-2.222 2.204 3.975 3.975 0 0 1-1.561.313 4.102 4.102 0 0 1-1.928-.494 3.952 3.952 0 0 1-1.537-1.452c-.396-.64-.594-1.391-.594-2.257zm1.026.055c0 .623.138 1.169.416 1.637.277.469.65.833 1.119 1.095.468.261.979.405 1.532.433.461 0 .922-.124 1.383-.372.46-.249.841-.612 1.143-1.094.301-.481.452-1.047.452-1.698 0-.379-.079-.746-.237-1.104s-.375-.678-.654-.96a3.138 3.138 0 0 0-.963-.667 2.71 2.71 0 0 0-1.124-.246 3.173 3.173 0 0 0-1.486.404c-.465.257-.844.61-1.132 1.06s-.44.952-.449 1.512zM116.481 27.605V17.06h1.054v10.546h-1.054zM122.668 23.758a4.15 4.15 0 0 1 .365-1.708c.237-.518.554-.958.952-1.319a4.281 4.281 0 0 1 2.858-1.121c1.427.035 2.448.605 3.064 1.712v-1.513h1.027v7.796h-1.027v-1.481c-.292.523-.714.93-1.269 1.219s-1.182.434-1.883.434a4.502 4.502 0 0 1-1.533-.308 4.168 4.168 0 0 1-1.314-.816 3.776 3.776 0 0 1-.911-1.271 3.958 3.958 0 0 1-.329-1.624zm1.082-.243c0 .64.14 1.206.422 1.699a2.97 2.97 0 0 0 1.115 1.136c.461.264.95.402 1.468.415a3.08 3.08 0 0 0 1.614-.432c.48-.285.856-.66 1.13-1.127.271-.465.407-.947.407-1.448 0-.552-.131-1.062-.396-1.527a3.033 3.033 0 0 0-1.091-1.119 3.204 3.204 0 0 0-1.522-.461c-.6 0-1.142.149-1.624.449a3.299 3.299 0 0 0-1.124 1.123c-.265.45-.399.881-.399 1.292zM132.724 27.605v-7.796h.998v1.168c.258-.429.608-.76 1.055-.992a3.044 3.044 0 0 1 1.422-.348c.439 0 .863.079 1.271.236a3.276 3.276 0 0 1 1.867 1.816c.191.451.287.954.287 1.511v4.404h-1.026V23.2c0-.538-.115-.998-.346-1.38a2.238 2.238 0 0 0-.908-.858 2.626 2.626 0 0 0-1.198-.285c-.416 0-.803.092-1.163.273a2.15 2.15 0 0 0-.871.818c-.222.362-.333.797-.333 1.303v4.533h-1.055zM140.952 23.344c.063-.726.29-1.37.684-1.932a4.139 4.139 0 0 1 1.474-1.307 4.165 4.165 0 0 1 1.819-.495c.658 0 1.273.126 1.844.379a3.19 3.19 0 0 1 1.392 1.19v-4.12h1.054v10.546h-.997v-1.481c-.372.554-.816.969-1.335 1.241-.519.274-1.152.411-1.901.411-.64-.028-1.275-.216-1.904-.565a4.324 4.324 0 0 1-1.543-1.449 3.763 3.763 0 0 1-.6-2.088 2.794 2.794 0 0 1 .013-.33zm1.082-.083a2.354 2.354 0 0 0-.028.428c0 .514.135 1.008.403 1.479.271.471.637.853 1.104 1.146.468.292.986.442 1.558.452.515 0 1.016-.13 1.501-.387.486-.258.883-.63 1.188-1.115.308-.486.461-1.049.461-1.689 0-.344-.11-.746-.329-1.209-.219-.464-.566-.864-1.041-1.204s-1.067-.51-1.779-.51c-.388 0-.794.086-1.219.26a3.005 3.005 0 0 0-1.149.849c-.341.39-.563.891-.67 1.5zM154.862 27.605V17.06h2.766c.83 0 1.546.088 2.145.264.601.174 1.083.482 1.448.921.365.439.573 1.038.624 1.794.009.067.015.162.015.285a2.73 2.73 0 0 1-.465 1.565c-.31.46-.741.817-1.296 1.072s-1.183.383-1.887.383h-2.296v4.262h-1.054zm1.054-9.606v4.405h2.182c.929 0 1.608-.214 2.042-.641s.651-1.002.651-1.726c-.039-.749-.326-1.276-.858-1.581-.531-.305-1.257-.458-2.176-.458h-1.841zM162.92 27.605V19.78h.984v1.168c.434-.893 1.193-1.339 2.28-1.339v1.067c-.246 0-.502.053-.767.157s-.508.253-.729.445a2.24 2.24 0 0 0-.531.675 1.806 1.806 0 0 0-.198.835v4.815h-1.039zM166.402 23.657a4.263 4.263 0 0 1 .367-1.685c.229-.498.536-.924.924-1.275a4.134 4.134 0 0 1 2.741-1.087c.665 0 1.311.162 1.935.485.624.324 1.135.81 1.532 1.457.397.648.598 1.422.598 2.319v.199h-7.043c.046.577.224 1.069.532 1.477s.683.712 1.122.914c.439.2.871.303 1.296.303.378 0 .76-.076 1.146-.227a3.363 3.363 0 0 0 1.021-.622c.296-.263.505-.555.628-.875h1.082a4.051 4.051 0 0 1-.955 1.519 4.019 4.019 0 0 1-1.405.919 4.354 4.354 0 0 1-1.571.298c-.693-.028-1.342-.214-1.946-.556s-1.09-.82-1.455-1.438c-.366-.616-.549-1.324-.549-2.125zm7.07-.525a3.175 3.175 0 0 0-1.619-2.167 2.901 2.901 0 0 0-1.39-.342c-.669 0-1.225.158-1.667.475-.443.316-.77.67-.978 1.062-.21.391-.33.715-.362.973h6.016zM177.929 27.605l-3.277-7.796h1.138l2.696 6.458 2.708-6.458h1.141l-3.323 7.796h-1.083zM182.508 23.657a4.263 4.263 0 0 1 .367-1.685c.229-.498.536-.924.923-1.275a4.15 4.15 0 0 1 2.742-1.087 4.16 4.16 0 0 1 1.935.485c.625.324 1.135.81 1.532 1.457.397.648.598 1.422.598 2.319v.199h-7.043c.047.577.224 1.069.532 1.477s.683.712 1.123.914c.438.2.87.303 1.295.303.378 0 .76-.076 1.146-.227a3.363 3.363 0 0 0 1.021-.622c.296-.263.506-.555.628-.875h1.083a4.066 4.066 0 0 1-2.362 2.438 4.341 4.341 0 0 1-1.57.298 4.241 4.241 0 0 1-1.946-.556 3.897 3.897 0 0 1-1.455-1.438c-.367-.616-.549-1.324-.549-2.125zm7.069-.525a3.17 3.17 0 0 0-1.62-2.167 2.898 2.898 0 0 0-1.389-.342c-.669 0-1.225.158-1.667.475-.443.316-.77.67-.978 1.062-.21.391-.33.715-.362.973h6.016zM191.961 27.605v-7.796h.998v1.168a2.63 2.63 0 0 1 1.055-.992c.445-.231.92-.348 1.423-.348.439 0 .862.079 1.271.236a3.276 3.276 0 0 1 1.866 1.816c.19.451.286.954.286 1.511v4.404h-1.026V23.2c0-.538-.115-.998-.346-1.38s-.534-.667-.908-.858a2.62 2.62 0 0 0-1.198-.285c-.416 0-.803.092-1.163.273a2.157 2.157 0 0 0-.871.818c-.222.362-.332.797-.332 1.303v4.533h-1.055zM201.134 27.605v-6.844h-1.638v-.953h1.638v-2.75h1.054v2.75h1.81v.953h-1.81v6.844h-1.054zM204.936 18.87v-1.81h1.054v1.81h-1.054zm0 8.735v-7.796h1.054v7.796h-1.054zM207.384 23.573a3.77 3.77 0 0 1 .322-1.482 4.049 4.049 0 0 1 2.209-2.135 4.332 4.332 0 0 1 1.671-.318c.569 0 1.154.164 1.752.491a4.51 4.51 0 0 1 1.509 1.341 3.615 3.615 0 0 1 .695 2.027c.005.066.008.114.008.146 0 .575-.108 1.113-.325 1.616a4.16 4.16 0 0 1-2.22 2.204 3.975 3.975 0 0 1-1.561.313 4.109 4.109 0 0 1-1.929-.494 3.952 3.952 0 0 1-1.537-1.452c-.397-.64-.594-1.391-.594-2.257zm1.025.055c0 .623.139 1.169.416 1.637.277.469.649.833 1.118 1.095.469.261.979.405 1.531.433.461 0 .923-.124 1.383-.372.46-.249.841-.612 1.144-1.094.302-.481.452-1.047.452-1.698a2.72 2.72 0 0 0-.236-1.104 3.18 3.18 0 0 0-.655-.96 3.126 3.126 0 0 0-.963-.667 2.71 2.71 0 0 0-1.124-.246 3.18 3.18 0 0 0-1.486.404c-.466.257-.844.61-1.132 1.06-.29.447-.439.952-.448 1.512zM216.922 27.605v-7.796h.999v1.168c.258-.429.609-.76 1.055-.992a3.045 3.045 0 0 1 1.423-.348c.438 0 .861.079 1.271.236.407.158.772.387 1.095.69.323.301.581.676.771 1.126.191.451.286.954.286 1.511v4.404h-1.024V23.2c0-.538-.117-.998-.347-1.38a2.238 2.238 0 0 0-.908-.858 2.627 2.627 0 0 0-1.199-.285c-.415 0-.803.092-1.162.273a2.166 2.166 0 0 0-.872.818c-.221.362-.331.797-.331 1.303v4.533h-1.057z"></path>
	</g>
</svg>
